# xmcd CD database file
#
# Track frame offsets:
#	182
#	13455
#	26155
#	45125
#	57545
#	73942
#	91077
#	106940
#	126817
#	142822
#	162105
#	181850
#
# Disc length: 2570 seconds
#
# Revision: 3
# Processed by: cddbd v1.5.1PL2 Copyright (c) Steve Scherf et al.
# Submitted via: CDex 1.51
#
DISCID=9b0a080c
DTITLE=Smokin' Armadillos - Smokin' Armadillos
DYEAR=1996
DGENRE=Country
TTITLE0=Too Hot To Handle
TTITLE1=The Big Bad Beat (Of My Broken Heart)
TTITLE2=Miracle Man
TTITLE3=Thump Factor
TTITLE4=Love Of A Lifetime
TTITLE5=When Will I Ever Learn
TTITLE6=Let Your Heart Lead Your Mind
TTITLE7=The Legend Of Wooley Swamp
TTITLE8=Dance With A Brand New Partner
TTITLE9=Could I Have Made It Back Then
TTITLE10=I'm A Cowboy
TTITLE11=My Girlfriend Might
EXTD=YEAR: 1996
EXTT0=
EXTT1=
EXTT2=
EXTT3=
EXTT4=
EXTT5=
EXTT6=
EXTT7=
EXTT8=
EXTT9=
EXTT10=
EXTT11=
PLAYORDER=
